<?xml version="1.0" encoding="UTF-8"?>
<!-- Created with Inkscape (http://www.inkscape.org/) -->
<svg width="256" height="256" version="1.1" viewBox="0 0 67.733 67.733" xmlns="http://www.w3.org/2000/svg" xmlns:xlink="http://www.w3.org/1999/xlink">
 <defs>
  <linearGradient id="linearGradient63309" x1="34.023" x2="31.011" y1="45.224" y2="24.86" gradientUnits="userSpaceOnUse">
   <stop stop-color="#f0c" offset="0"/>
   <stop stop-color="#7800cc" offset="1"/>
  </linearGradient>
 </defs>
 <g transform="matrix(.74537 0 0 .74537 8.6235 2.7654)"></g>
 <path d="m33.867 8.2654a26.488 26.488 0 0 0-26.488 26.488 26.488 26.488 0 0 0 13.792 23.228 20.142 20.142 0 0 1-7.6672-15.809 20.142 20.142 0 0 1 20.142-20.142 20.142 20.142 0 0 1 20.142 20.142 20.142 20.142 0 0 1-8.6754 16.554 26.488 26.488 0 0 0 15.242-23.972 26.488 26.488 0 0 0-26.488-26.488z" fill="none" stroke-width=".21672"/>
 <g fill-rule="evenodd">
  <path d="m33.867 8.2654a19.743 19.743 0 0 0-19.743 19.743 19.743 19.743 0 0 0 10.28 17.313 15.013 15.013 0 0 1-5.7149-11.784 15.013 15.013 0 0 1 15.013-15.014 15.013 15.013 0 0 1 15.014 15.014 15.013 15.013 0 0 1-6.4664 12.338 19.743 19.743 0 0 0 11.361-17.868 19.743 19.743 0 0 0-19.743-19.743z" fill="#ff00a3" stroke-width=".16153"/>
  <path d="m33.867 8.2654a19.743 19.743 0 0 0-19.743 19.743 19.743 19.743 0 0 0 3.7632 11.513 14.432 14.432 0 0 1-1.7595-6.8866 14.432 14.432 0 0 1 14.432-14.432 14.432 14.432 0 0 1 3.0583 0.32856 15.013 15.013 0 0 1 0.08397-0.0066 15.013 15.013 0 0 1 15.014 15.014 15.013 15.013 0 0 1-6.4664 12.338 19.743 19.743 0 0 0 11.361-17.868 19.743 19.743 0 0 0-19.743-19.743z" fill="#b300cc" stroke-width=".16153"/>
  <path d="m33.867 8.2654a19.743 19.743 0 0 0-19.743 19.743 19.743 19.743 0 0 0 3.7166 11.5 15.788 15.788 0 0 1-2.4563-8.3677 15.788 15.788 0 0 1 15.789-15.789 15.788 15.788 0 0 1 14.006 8.5071 15.013 15.013 0 0 1 3.5371 9.6784 15.013 15.013 0 0 1-6.4664 12.338 19.743 19.743 0 0 0 11.361-17.868 19.743 19.743 0 0 0-19.743-19.743z" fill="#2700aa" fill-opacity=".55327" stroke-width=".16174"/>
 </g>
 <path d="m34.023 45.224q-1.0189 0-1.742-0.70668-0.70668-0.72311-0.70668-1.742v-9.6963q0-1.0189 0.72311-1.742 0.73955-0.72311 1.7256-0.72311h0.03287q0.98606 0 1.7092 0.72311 0.72311 0.72311 0.72311 1.742v9.6963q0 1.0189-0.72311 1.742-0.72311 0.72311-1.7092 0.70668zm2.2679-18.505q0 1.0682-0.75598 1.8078-0.73955 0.73955-1.7749 0.73955-1.0518 0-1.7749-0.73955-0.72311-0.73955-0.73955-1.8078 0-1.0682 0.73955-1.7913 0.72311-0.73955 1.7749-0.72311 1.0189 0 1.7749 0.70668 0.75598 0.72311 0.75598 1.8078z" fill="url(#linearGradient63309)" stroke-width=".19721"/>
 <g stroke-width=".26458">
  <path d="m15.069 55.375q-0.34175 0-0.58429-0.23702-0.23702-0.24254-0.23702-0.58429v-3.2522q0-0.34175 0.24254-0.58429 0.24805-0.24254 0.57878-0.24254h0.01102q0.33073 0 0.57326 0.24254t0.24254 0.58429v3.2522q0 0.34175-0.24254 0.58429t-0.57326 0.23702zm0.76068-6.2067q0 0.35829-0.25356 0.60634-0.24805 0.24805-0.59531 0.24805-0.35278 0-0.59531-0.24805t-0.24805-0.60634q0-0.35829 0.24805-0.60082 0.24254-0.24805 0.59531-0.24254 0.34175 0 0.59531 0.23702 0.25356 0.24254 0.25356 0.60634z"/>
  <path d="m16.723 49.273t0-0.02205q-0.07717-0.34175 0.09371-0.56224 0.17088-0.22049 0.44648-0.22049h4.2278q0.28112 0 0.45751 0.23151 0.17639 0.23151 0.08268 0.55122v0.02205q-0.0441 0.1819-0.20946 0.30868-0.17088 0.12678-0.33073 0.11024l-1.2678-0.09922v5.005q0 0.35829-0.24254 0.60634-0.24254 0.24254-0.60634 0.24254h-0.0055q-0.35278 0-0.59531-0.24254t-0.24254-0.60634v-5.005l-1.2678 0.09922q-0.18741 0.01654-0.34727-0.12678-0.15985-0.1378-0.19293-0.29214z"/>
  <path d="m24.126 52.729t0 0.3638q0 0.57326 0.30317 0.97565 0.30317 0.40239 0.73312 0.39136 0.25356 0.02756 0.51263-0.04961 0.52366-0.1819 0.52366-0.79375 0 0 0-1.8631-0.09922-0.31419-0.57326-0.49058-0.47405-0.1819-0.98668 0.06063-0.51263 0.23702-0.51263 1.4056zm-0.80478 1.9017q-0.70556-0.74414-0.70556-1.797 0-1.0583 0.70556-1.8025 0.70556-0.74414 1.7088-0.74414 0.84336 0 1.1686 0.74414 0-0.24254 0.1819-0.42444 0.15985-0.15985 0.40239-0.15985h0.42444q0.24254 0 0.41341 0.15985 0.17088 0.1819 0.17088 0.42444v4.0239q0 0.14332-0.09922 0.23151-0.09371 0.08819-0.226 0.08819h-0.66146q-0.14332 0-0.33073-0.19844-0.18741-0.19844-0.33624-0.22049-0.14883-0.02205-0.28112 0.06615-0.5457 0.35278-0.82682 0.35278-1.0032 0-1.7088-0.74414z"/>
  <path d="m31.959 50.282t0.02205 0q0.47404 0 0.65595 0.40239 0.1819 0.40239-0.09371 0.78273l-1.0253 1.4276 1.0253 1.2954q0.29214 0.36932 0.09371 0.77721-0.19844 0.41341-0.65595 0.4079h-0.02205q-0.39136 0-0.61185-0.34175l-0.79375-1.2182-0.78824 1.2182q-0.22049 0.34175-0.62287 0.34175 0 0-0.01102 0-0.45751 0-0.65044-0.41892-0.19844-0.41892 0.07717-0.76619l1.0308-1.2954-1.0308-1.4276q-0.2701-0.37483-0.071662-0.78273 0.19293-0.4079 0.64492-0.40239h0.01102q0.4079 0 0.62287 0.33073l0.78824 1.2237 0.79375-1.2237q0.21498-0.33073 0.61185-0.33073z"/>
  <path d="m35.194 54.151 2.282-0.0441q0.24254-0.0055 0.43546 0.17088 0.19293 0.17639 0.19293 0.452v0.02205q0 0.25907-0.1819 0.44648-0.1819 0.1819-0.44648 0.17639h-2.9545q-0.40239 0-0.69453-0.29214-0.29214-0.29214-0.29214-0.69453v-4.983q0-0.39688 0.28112-0.69453 0.28112-0.29214 0.70556-0.29214h2.8057q0.31419 0 0.49058 0.22049 0.2701 0.33073 0.11576 0.64492-0.15434 0.31419-0.21497 0.3638-0.18741 0.14883-0.40239 0.1378l-2.1222-0.09922v1.5655l2.0009-0.04961q0.24805-0.0055 0.43546 0.17088 0.18741 0.17639 0.18741 0.44097v0.02205q0 0.26458-0.18741 0.44648-0.18741 0.1819-0.43546 0.17639l-2.0009-0.04961z"/>
  <path d="m40.221 52.729t0 0.3638q0 0.57326 0.30317 0.97565 0.30317 0.40239 0.73312 0.39136 0.25356 0.02756 0.51263-0.04961 0.52366-0.1819 0.52366-0.79375 0 0 0-1.8631-0.09922-0.31419-0.57326-0.49058-0.47405-0.1819-0.98668 0.06063-0.51263 0.23702-0.51263 1.4056zm-0.80478 1.9017q-0.70556-0.74414-0.70556-1.797 0-1.0583 0.70556-1.8025 0.70556-0.74414 1.7088-0.74414 0.84336 0 1.1686 0.74414 0-0.24254 0.1819-0.42444 0.15985-0.15985 0.40239-0.15985h0.42444q0.24254 0 0.41341 0.15985 0.17088 0.1819 0.17088 0.42444v4.0239q0 0.14332-0.09922 0.23151-0.09371 0.08819-0.226 0.08819h-0.66146q-0.14332 0-0.33073-0.19844-0.18741-0.19844-0.33624-0.22049-0.14883-0.02205-0.28112 0.06615-0.5457 0.35278-0.82682 0.35278-1.0032 0-1.7088-0.74414z"/>
  <path d="m44.593 54.554q0.04961-0.20946 0.2701-0.34175 0.19844-0.12127 0.53468-0.01102 0.33624 0.11024 0.68351 0.09922 0.66146-0.01102 0.66146-0.41341 0-0.1819-0.14332-0.29766t-0.57878-0.2701q-1.4332-0.49609-1.4221-1.4993 0.01102-0.72209 0.56224-1.1741 0.5457-0.452 1.4607-0.452 0.42995-0.0055 0.88746 0.12127 0.20395 0.05512 0.32522 0.24254 0.11576 0.18741 0.05512 0.40239v0.0055q-0.03859 0.20946-0.24254 0.33624-0.20395 0.12127-0.46302 0.04961-0.26458-0.07166-0.51263-0.08268-0.5898-0.01102-0.5898 0.39136 0 0.16536 0.17088 0.29766 0.17088 0.12678 0.6339 0.28663 1.3284 0.46853 1.3339 1.5214 0.01102 0.72209-0.53468 1.1741-0.5457 0.44648-1.604 0.44648-0.55673 0-1.1079-0.14883-0.19292-0.04961-0.3197-0.26458-0.12127-0.19844-0.06063-0.40239z"/>
  <path d="m52.855 50.221t0.01102 0q0.35278 0 0.58429 0.29214 0.226 0.29766 0.09922 0.65044-0.06063 0.16536-1.571 4.6964-0.28112 0.84336-0.96463 1.3119-0.68351 0.47404-1.5875 0.28663-0.10473-0.02756-0.26458-0.08819-0.3638-0.1378-0.3638-0.5457v-0.01102q0-0.11024 0.1819-0.41341 0.12127-0.1819 0.36932-0.1819 0.25356 0 0.45751-0.09922 0.47405-0.23151 0.47405-1.0859v-0.01654q-0.31971-1.5655-1.3119-3.7979-0.15985-0.35278 0.04961-0.678 0.20946-0.3197 0.59531-0.3197h0.13229q0.11024 0 0.41341 0.13229 0.19293 0.09922 0.25907 0.35278l0.89848 3.1805q0.47405-0.98116 0.84336-3.164 0.03307-0.18741 0.23151-0.34727 0.19844-0.15434 0.46302-0.15434z"/>
  <path d="m21.859 57.118v1.1472h0.29766q0.15503 0 0.27078-0.12402 0.11782-0.12402 0.11782-0.44855 0-0.32246-0.11782-0.44855-0.11782-0.12609-0.27078-0.12609zm0.47749 1.4345-0.47749 0.0062v0.60772q0 0.12816-0.09095 0.21704-0.09095 0.08888-0.21084 0.08475h-0.0083q-0.12816 0.0041-0.21084-0.08682-0.09095-0.08268-0.09095-0.21497v-1.9802q0-0.11989 0.09095-0.21084t0.21911-0.09095h0.71313q0.07441 0 0.13022 0.01034 0.30179 0.04547 0.50436 0.28112 0.20257 0.23564 0.20257 0.51676 0 0.27905-0.15916 0.5271-0.21291 0.32866-0.61185 0.3328z"/>
  <path d="m23.924 57.643q0.11989-0.08475 0.43615-0.08475 0.05788 0 0.08888 0.04134 0.03101 0.04134 0.02067 0.09095l-0.04134 0.19224q-0.02894 0.18397-0.14263 0.16743-0.19017-0.03101-0.339 0.07441t-0.1509 0.24184v0.0041h-0.0041v0.79995q0 0.11576-0.08475 0.20257-0.08475 0.08682-0.20671 0.08682h-0.0062q-0.11989 0-0.20464-0.08268-0.08268-0.08475-0.08268-0.2067v-1.3126q0-0.11989 0.08682-0.20671 0.08682-0.08475 0.20464-0.08475h0.01034q0.1509 0 0.29145 0.21497 0.06408-0.09715 0.12402-0.13849z"/>
  <path d="m25.005 59.464q-0.12816 0-0.21911-0.08888-0.08888-0.09095-0.08888-0.21911v-1.2196q0-0.12816 0.09095-0.21911 0.09302-0.09095 0.21704-0.09095h0.0041q0.12402 0 0.21497 0.09095 0.09095 0.09095 0.09095 0.21911v1.2196q0 0.12816-0.09095 0.21911t-0.21497 0.08888zm0.28525-2.3275q0 0.13436-0.09508 0.22738-0.09302 0.09302-0.22324 0.09302-0.13229 0-0.22324-0.09302t-0.09302-0.22738q0-0.13436 0.09302-0.22531 0.09095-0.09302 0.22324-0.09095 0.12816 0 0.22324 0.08888 0.09508 0.09095 0.09508 0.22738z"/>
  <path d="m27.035 57.574t0.0083 0q0.1509 0 0.23771 0.12196 0.08475 0.11782 0.03307 0.26252l-0.40721 1.1658q-0.05168 0.1509-0.18604 0.24598-0.13436 0.09508-0.29559 0.09302h-0.0083q-0.16536 0-0.29766-0.09922-0.13229-0.10129-0.17777-0.24805l-0.36587-1.1576q-0.04547-0.14676 0.03721-0.26252 0.08268-0.11989 0.23358-0.12196h0.03721q0.09095 0 0.17363 0.05788 0.08268 0.05994 0.10542 0.14676 0.19844 0.7338 0.27285 1.1203h0.0124q0.07028-0.3328 0.31212-1.1203 0.02687-0.08888 0.10542-0.14676 0.08268-0.05788 0.1695-0.05788z"/>
  <path d="m28.128 58.471t0 0.13643q0 0.21497 0.11369 0.36587t0.27492 0.14676q0.09508 0.01034 0.19224-0.0186 0.19637-0.06821 0.19637-0.29766 0 0 0-0.69866-0.03721-0.11782-0.21497-0.18397-0.17777-0.06821-0.37 0.02274-0.19224 0.08888-0.19224 0.5271zm-0.30179 0.71313q-0.26458-0.27905-0.26458-0.67386 0-0.39688 0.26458-0.67593 0.26458-0.27905 0.64079-0.27905 0.31626 0 0.43822 0.27905 0-0.09095 0.06821-0.15916 0.05994-0.05994 0.1509-0.05994h0.15916q0.09095 0 0.15503 0.05994 0.06408 0.06821 0.06408 0.15916v1.509q0 0.05374-0.03721 0.08682-0.03514 0.03307-0.08475 0.03307h-0.24805q-0.05374 0-0.12402-0.07441-0.07028-0.07441-0.12609-0.08268-0.05581-0.0083-0.10542 0.0248-0.20464 0.13229-0.31006 0.13229-0.3762 0-0.64079-0.27905z"/>
  <path d="m30.491 58.567q0 0.31626 0.17363 0.40721 0.13436 0.07441 0.06408 0.27905-0.07028 0.21084-0.22324 0.21084-0.24805 0-0.39894-0.29352-0.12816-0.25218-0.12816-0.64079v-0.50643h-0.07441q-0.08475 0-0.14056-0.05374-0.05788-0.05168-0.05581-0.13849v-0.0041q0-0.08062 0.05581-0.13849 0.05581-0.05788 0.14056-0.05788h0.07441v-0.21084q0-0.14469 0.11369-0.22944 0.06201-0.04961 0.1757-0.04961h0.0083q0.07028 0 0.14263 0.09095 0.07235 0.09095 0.07235 0.1881v0.21084h0.1736q0.07648 0 0.13436 0.05994 0.05788 0.05994 0.05788 0.13643v0.0041q0 0.08888-0.05581 0.14056t-0.13643 0.05168h-0.17363z"/>
  <path d="m31.996 57.928q-0.14676 0-0.28939 0.12609-0.09095 0.08062-0.12609 0.26252h0.90537q-0.06821-0.23978-0.20257-0.31419-0.13436-0.07441-0.28732-0.07441zm0.91571 0.58291v0.0021q0 0.17363-0.16536 0.17363h-1.1514q0.05995 0.1881 0.12196 0.24805 0.22944 0.21084 0.61185 0.03927l0.21291-0.09508q0.13849-0.06201 0.21291 0.04341 0.07441 0.10542 0.04961 0.21704l-0.0041 0.0021q-0.02067 0.09302-0.19017 0.18604-0.24598 0.13643-0.678 0.13229-0.31006 0-0.59945-0.27699-0.28732-0.27698-0.28732-0.67179 0-0.39688 0.27698-0.67799 0.27905-0.27905 0.65732-0.27285 0.37827 0.0062 0.65526 0.27078 0.27699 0.26458 0.27699 0.68006z"/>
  <path d="m34.495 56.861q0.15916 0 0.25425 0.08888 0.09508 0.08888 0.09302 0.21911l-0.03514 1.7942 0.88883-0.03927q0.09715-0.0062 0.1695 0.07028 0.07235 0.07441 0.07028 0.17157v0.0041q0 0.13643-0.06821 0.20877-0.07028 0.07028-0.17156 0.07028h-1.1886q-0.11989 0-0.20464-0.08268-0.08268-0.08268-0.08268-0.20464v-1.9926q0-0.12402 0.08888-0.21497 0.08888-0.09302 0.17983-0.09302z"/>
  <path d="m36.477 59.464q-0.12816 0-0.21911-0.08888-0.08888-0.09095-0.08888-0.21911v-1.2196q0-0.12816 0.09095-0.21911 0.09302-0.09095 0.21704-0.09095h0.0041q0.12402 0 0.21497 0.09095t0.09095 0.21911v1.2196q0 0.12816-0.09095 0.21911t-0.21497 0.08888zm0.28525-2.3275q0 0.13436-0.09508 0.22738-0.09302 0.09302-0.22324 0.09302-0.13229 0-0.22324-0.09302t-0.09302-0.22738q0-0.13436 0.09302-0.22531 0.09095-0.09302 0.22324-0.09095 0.12816 0 0.22324 0.08888 0.09508 0.09095 0.09508 0.22738z"/>
  <path d="m40.08 58.474t0 0.74207q0 0.10749-0.06615 0.17777-0.06615 0.06821-0.20464 0.06821h-0.0041q-0.27078 0-0.27078-0.24598v-0.98598q0-0.13643-0.10335-0.23564-0.10129-0.09715-0.23771-0.09302-0.13642 0.0041-0.22531 0.10335-0.09095 0.10128-0.09095 0.23564v0.97565q0 0.10749-0.06408 0.17777t-0.20671 0.06821h-0.05374q-0.13849 0-0.20464-0.07028-0.06614-0.07028-0.06614-0.1757v-0.98598q0-0.13643-0.09922-0.23564-0.09922-0.09922-0.23771-0.09302-0.14056 0.0041-0.22738 0.10749-0.08682 0.10542-0.08888 0.23151v0.97565q0 0.10955-0.06821 0.17777-0.06821 0.06821-0.2067 0.06821h-0.03927q-0.13849 0-0.20464-0.06615-0.06615-0.06615-0.06615-0.17983v-1.4614q0-0.08268 0.05168-0.13643 0.05168-0.05168 0.13642-0.05374h0.21911q0.07441 0 0.13022 0.05581 0.05581 0.05374 0.05581 0.13436 0.02274-0.01447 0.05994-0.05374 0.12816-0.13642 0.27492-0.17363 0.48162-0.12196 0.74621 0.31626h0.0124q0.28939-0.28525 0.44028-0.31626 0.43201-0.08475 0.67179 0.20877 0.23771 0.29352 0.23771 0.73794z"/>
  <path d="m40.634 59.464q-0.12816 0-0.21911-0.08888-0.08888-0.09095-0.08888-0.21911v-1.2196q0-0.12816 0.09095-0.21911 0.09302-0.09095 0.21704-0.09095h0.0041q0.12402 0 0.21497 0.09095t0.09095 0.21911v1.2196q0 0.12816-0.09095 0.21911t-0.21497 0.08888zm0.28525-2.3275q0 0.13436-0.09508 0.22738-0.09302 0.09302-0.22324 0.09302-0.13229 0-0.22324-0.09302t-0.09302-0.22738q0-0.13436 0.09302-0.22531 0.09095-0.09302 0.22324-0.09095 0.12816 0 0.22324 0.08888 0.09508 0.09095 0.09508 0.22738z"/>
  <path d="m41.932 58.567q0 0.31626 0.17363 0.40721 0.13436 0.07441 0.06408 0.27905-0.07028 0.21084-0.22324 0.21084-0.24805 0-0.39894-0.29352-0.12816-0.25218-0.12816-0.64079v-0.50643h-0.07441q-0.08475 0-0.14056-0.05374-0.05788-0.05168-0.05581-0.13849v-0.0041q0-0.08062 0.05581-0.13849 0.05581-0.05788 0.14056-0.05788h0.07441v-0.21084q0-0.14469 0.11369-0.22944 0.06201-0.04961 0.1757-0.04961h0.0083q0.07028 0 0.14263 0.09095 0.07235 0.09095 0.07235 0.1881v0.21084h0.17363q0.07648 0 0.13436 0.05994 0.05788 0.05994 0.05788 0.13643v0.0041q0 0.08888-0.05581 0.14056t-0.13642 0.05168h-0.17363z"/>
  <path d="m43.437 57.928q-0.14676 0-0.28939 0.12609-0.09095 0.08062-0.12609 0.26252h0.90537q-0.06821-0.23978-0.20257-0.31419-0.13436-0.07441-0.28732-0.07441zm0.9157 0.58291v0.0021q0 0.17363-0.16536 0.17363h-1.1514q0.05994 0.1881 0.12196 0.24805 0.22944 0.21084 0.61185 0.03927l0.21291-0.09508q0.13849-0.06201 0.21291 0.04341 0.07441 0.10542 0.04961 0.21704l-0.0041 0.0021q-0.02067 0.09302-0.19017 0.18604-0.24598 0.13643-0.67799 0.13229-0.31006 0-0.59945-0.27699-0.28732-0.27698-0.28732-0.67179 0-0.39688 0.27699-0.67799 0.27905-0.27905 0.65732-0.27285 0.37827 0.0062 0.65526 0.27078 0.27698 0.26458 0.27698 0.68006z"/>
  <path d="m45.109 58.36t0 0.24805q0 0.21497 0.11162 0.36587 0.11369 0.1509 0.28112 0.14676 0.09095 0.01034 0.1881-0.0186 0.19637-0.06821 0.2005-0.29766 0 0 0-0.69866-0.04134-0.11782-0.21911-0.18397-0.17777-0.06821-0.36587 0.02274-0.09095 0.04134-0.14469 0.1571-0.05168 0.11782-0.05168 0.25838zm0.339-0.80408q0.23358 0 0.44235 0.11989v-0.62218q-0.0021-0.11989 0.08475-0.20671 0.08682-0.08682 0.20877-0.08682h0.0083q0.11989 0 0.2067 0.08682 0.08682 0.08682 0.08682 0.20671v2.2903q0.0041 0.04547-0.03514 0.08268-0.03721 0.03721-0.08682 0.03721h-0.35347q-0.05374 0-0.08888-0.03721t-0.03101-0.08268q-0.20671 0.11989-0.44235 0.11989-0.3762 0-0.64079-0.27905-0.26458-0.27905-0.26458-0.67386 0-0.39688 0.26458-0.67593 0.26458-0.27905 0.64079-0.27905z"/>
 </g>
</svg>
